<svg width="180" height="26" viewBox="0 0 180 26" fill="none" xmlns="http://www.w3.org/2000/svg">
<path d="M59.424 21.3347L58.6787 19.3092H53.6037L52.8583 21.3347H50.0029L54.5701 9.40625H57.7287L62.2958 21.3347H59.424ZM56.1357 11.9437L54.296 17.0774H57.9863L56.1357 11.9437Z" fill="white"/>
<path d="M67.3711 15.3794C67.3711 11.6967 70.1205 9.20898 73.6865 9.20898C76.277 9.20898 77.7842 10.6213 78.619 12.1239L76.4542 13.1974C76.1895 12.6846 75.793 12.2529 75.3061 11.9474C74.8193 11.6419 74.2599 11.4739 73.6865 11.461C71.5217 11.461 69.9689 13.1182 69.9689 15.3794C69.9689 17.6406 71.5308 19.296 73.6957 19.296C74.2687 19.2829 74.8278 19.115 75.3146 18.8099C75.8014 18.5048 76.1981 18.0737 76.4633 17.5615L78.6282 18.6147C77.7933 20.1007 76.2861 21.548 73.6957 21.548C70.1205 21.548 67.3711 19.0456 67.3711 15.3794Z" fill="white"/>
<path d="M79.9307 21.3347V9.40625H82.4682V19.0992H87.4701V21.3347H79.9307Z" fill="white"/>
<path d="M87.9355 15.3794C87.9355 11.7851 90.5443 9.20898 94.1286 9.20898C97.7129 9.20898 100.294 11.7851 100.294 15.3794C100.294 18.9738 97.6873 21.548 94.1213 21.548C90.5553 21.548 87.9355 18.9738 87.9355 15.3794ZM97.711 15.3794C97.711 13.144 96.3098 11.4628 94.1286 11.4628C91.9473 11.4628 90.526 13.144 90.526 15.3794C90.526 17.6149 91.9272 19.296 94.1286 19.296C96.3299 19.296 97.711 17.5964 97.711 15.3794Z" fill="white"/>
<path d="M101.886 16.56V9.40625H104.443V16.4882C104.443 18.1454 105.402 19.2963 107.229 19.2963C109.056 19.2963 109.997 18.1509 109.997 16.4882V9.40625H112.569V16.56C112.569 19.5062 110.832 21.5483 107.229 21.5483C103.627 21.5483 101.886 19.5099 101.886 16.56Z" fill="white"/>
<path d="M114.816 21.3347V9.40625H119.477C123.185 9.40625 125.757 11.7853 125.757 15.3613C125.757 18.974 123.185 21.3347 119.495 21.3347H114.816ZM123.191 15.3613C123.191 13.2695 121.912 11.6417 119.5 11.6417H117.336V19.0992H119.477C121.824 19.0992 123.191 17.3997 123.191 15.3613Z" fill="white"/>
<path d="M131.545 15.3794C131.545 11.6065 134.384 9.20898 137.862 9.20898C140.31 9.20898 141.854 10.4611 142.74 11.8735L140.668 13.0188C140.364 12.5466 139.948 12.1574 139.459 11.8857C138.969 11.6139 138.421 11.4681 137.862 11.461C135.697 11.461 134.135 13.1182 134.135 15.3776C134.135 17.6369 135.697 19.2942 137.862 19.2942C138.777 19.2894 139.661 18.9639 140.363 18.3735V16.952H137.241V14.7423H142.882V19.3126C142.256 20.0294 141.483 20.6005 140.616 20.9864C139.749 21.3724 138.81 21.564 137.862 21.548C134.384 21.548 131.545 19.134 131.545 15.3794Z" fill="white"/>
<path d="M144.745 16.56V9.40625H147.303V16.4882C147.303 18.1454 148.262 19.2963 150.089 19.2963C151.916 19.2963 152.853 18.1509 152.853 16.4882V9.40625H155.425V16.56C155.425 19.5062 153.686 21.5483 150.085 21.5483C146.484 21.5483 144.745 19.5099 144.745 16.56Z" fill="white"/>
<path d="M164.364 21.3347L162.042 17.0958H160.197V21.331H157.676V9.40625H163.211C165.677 9.40625 167.203 11.034 167.203 13.251C167.203 15.3428 165.878 16.4882 164.6 16.8012L167.28 21.3439L164.364 21.3347ZM164.612 13.2326C164.612 12.2493 163.851 11.6417 162.857 11.6417H160.195V14.8604H162.857C163.851 14.8604 164.612 14.2527 164.612 13.2326Z" fill="white"/>
<path d="M168.821 16.56V9.40625H171.379V16.4882C171.379 18.1454 172.336 19.2963 174.163 19.2963C175.99 19.2963 176.931 18.1509 176.931 16.4882V9.40625H179.503V16.56C179.503 19.5062 177.766 21.5483 174.163 21.5483C170.56 21.5483 168.821 19.5099 168.821 16.56Z" fill="white"/>
<path d="M13.9695 19.1654C13.9549 19.217 13.9403 19.2667 13.9238 19.3164L14.4719 19.5005C14.5964 19.0993 14.6851 18.6877 14.7368 18.2705L14.1412 18.2742C14.1047 18.5749 14.0473 18.8727 13.9695 19.1654Z" fill="#F68922"/>
<path d="M14.1414 14.6633C13.9679 14.2812 13.7593 13.9163 13.5185 13.5732L13.0508 13.9047C13.2714 14.2193 13.4622 14.554 13.6208 14.9046L14.1414 14.6633Z" fill="#F68922"/>
<path d="M12.709 12.615C12.411 12.3217 12.0869 12.0567 11.7407 11.8232L11.4229 12.302C11.7399 12.5163 12.0371 12.7591 12.3107 13.0275L12.709 12.615Z" fill="#F68922"/>
<path d="M13.4569 20.467L13.4295 20.5185H13.4204L13.2779 20.3657L13.2651 20.3528H13.2487H13.2359L13.2249 20.3399L13.2121 20.3233L13.1939 20.3031L13.1792 20.2865L13.1646 20.2699V20.2589H13.1537H12.971V20.2478C12.8869 20.1466 12.8066 20.0434 12.7262 19.9385L12.2402 20.0839C12.4857 20.4046 12.748 20.712 13.0258 21.0046L13.2943 20.7468C13.1939 20.9126 13.0952 21.082 12.9801 21.2385L12.9381 21.2956H12.9271H12.8851L13.3327 21.6638C13.5913 21.3348 13.82 20.9829 14.0159 20.6124L13.4569 20.467Z" fill="#F68922"/>
<path d="M11.1113 22.9346L11.4018 23.4318C11.7643 23.2183 12.1062 22.9711 12.423 22.6934L12.0467 22.2588C11.7565 22.5129 11.4433 22.7392 11.1113 22.9346Z" fill="#F68922"/>
<path d="M27.9513 8.62869C28.2958 8.46812 28.6511 8.33214 29.0145 8.22174L29.0547 8.21069L28.872 7.5791L28.8319 7.59015C28.4378 7.70915 28.0525 7.85622 27.6791 8.03024L27.6426 8.04865L27.9184 8.6471L27.9513 8.62869Z" fill="#F68922"/>
<path d="M26.8713 9.25107L26.8914 9.23265H26.9261V9.2124L26.9846 9.17741L26.6192 8.625L26.5845 8.64894C26.2408 8.8756 25.9136 9.12666 25.6053 9.40022L25.5742 9.42784L26.0072 9.92133L26.0382 9.89555C26.0857 9.85135 26.1351 9.81084 26.1844 9.76849L26.2008 9.75376H26.2118L26.2301 9.72798L26.2611 9.70957V9.69668L26.2977 9.68563V9.66353H26.3086H26.336V9.64512L26.3853 9.62487V9.61198H26.4V9.59909H26.4274V9.57883H26.4456L26.5041 9.5328L26.5242 9.51991H26.5351L26.5479 9.50886L26.568 9.49597L26.5826 9.48492C26.5826 9.48492 26.5936 9.47571 26.5826 9.47571H26.5954H26.6064L26.6429 9.45362H26.6722V9.43152H26.7014H26.716V9.41495L26.7854 9.36523L26.8713 9.25107Z" fill="#F68922"/>
<path d="M24.5617 11.66L24.5836 11.6231C24.7554 11.3482 24.9433 11.0838 25.1463 10.8313L25.1591 10.8074H25.181V10.7908H25.2102V10.7651L25.2321 10.7356H25.2541V10.7117L25.2796 10.6859L24.7773 10.2568L24.7517 10.2881C24.4843 10.6037 24.2401 10.9385 24.0209 11.2898L23.999 11.3248L24.527 11.6452L24.5617 11.66Z" fill="#F68922"/>
<path d="M23.6701 13.7591V13.7112L23.6793 13.6762C23.7786 13.3218 23.9006 12.9743 24.0446 12.6359L24.0611 12.599L23.4637 12.332L23.4473 12.3707C23.2818 12.7499 23.1438 13.1407 23.0344 13.54L23.0234 13.5805L23.6135 13.7444L23.6701 13.7591Z" fill="#F68922"/>
<path d="M23.3836 15.985C23.3836 15.8229 23.3836 15.6535 23.3836 15.4786V15.4381C23.3946 15.2429 23.4128 15.0422 23.4366 14.8452V14.8047L22.7899 14.7236V14.7641C22.7607 14.9869 22.7424 15.2153 22.7314 15.4455C22.7314 15.6296 22.7205 15.8137 22.7314 15.9979V16.0402L23.3854 16.0273L23.3836 15.985Z" fill="#F68922"/>
<path d="M23.7634 18.2741L23.7524 18.2355C23.6375 17.8705 23.5489 17.4975 23.4875 17.1196V17.0791L22.881 17.1785H22.8408V17.219C22.9076 17.6281 23.0035 18.0318 23.1276 18.427L23.1404 18.4657L23.7232 18.2815L23.7634 18.2741Z" fill="#F68922"/>
<path d="M24.562 20.0127V20.0016H24.5511L24.531 19.9703L24.5182 19.9538V19.9206H24.5054L24.4926 19.9041H24.4835V19.8764H24.4725V19.8562H24.4579L24.3921 19.7383L24.3556 19.6776L24.3227 19.6242L24.2971 19.5634V19.5266V19.5008V19.4824V19.4695H24.2807C24.2533 19.4161 24.2277 19.3645 24.2021 19.3111L24.1839 19.2725L23.5664 19.5634L23.5828 19.6002C23.7631 19.9724 23.9695 20.3311 24.2003 20.6737L24.2222 20.7087L24.7703 20.3405L24.7466 20.3055C24.6826 20.2079 24.6223 20.1158 24.562 20.0127ZM24.5401 20.0127H24.5529L24.5273 20.0293L24.5401 20.0127Z" fill="#F68922"/>
<path d="M27.8938 23.0193L27.8664 23.0064V22.9917H27.8299L27.7897 22.9715V22.9549H27.7678V22.9457H27.7459H27.7148L27.6801 22.9273V22.9089H27.6436V22.8775H27.6143L27.5796 22.861V22.8462H27.5486L27.523 22.8186H27.5066H27.4956H27.4718L27.4116 22.7855L27.3787 22.7523H27.3385L27.1887 22.6621L26.8525 23.2274L26.8872 23.2477C27.2389 23.4582 27.6053 23.6428 27.9834 23.8001L28.0217 23.8167L28.2738 23.209L28.2373 23.1924C28.1094 23.1188 27.9998 23.0709 27.8938 23.0193ZM27.6618 22.9365V22.9475V22.9365Z" fill="#F68922"/>
<path d="M31.1533 12.7664C31.1533 12.8143 31.1533 12.864 31.1533 12.9137V12.9266C31.1533 13.0261 31.1533 13.1237 31.1533 13.2231V13.2397V13.3023V13.3133V13.3262V13.3409V13.3538V13.4569V13.4717V13.4864L31.7251 13.5122C31.7251 13.3465 31.7361 13.1771 31.7361 13.0095C31.7361 12.7719 31.7361 12.5326 31.7123 12.2969L31.1533 12.7664Z" fill="#F68922"/>
<path d="M12.046 18.7799C11.8472 18.4508 11.6679 18.1102 11.5089 17.7598L10.9883 18.001C11.1558 18.3697 11.3437 18.7287 11.551 19.0763L12.046 18.7799Z" fill="#F68922"/>
<path d="M29.96 18.3311L30.466 18.6036C30.6552 18.2449 30.8247 17.8761 30.9739 17.4988L30.4422 17.2852C30.3023 17.6432 30.1413 17.9924 29.96 18.3311Z" fill="#F68922"/>
<path d="M30.103 8.82555V8.83844H30.114V8.85133C30.1944 9.0189 30.2711 9.1883 30.3424 9.35955L30.8703 9.13675C30.7137 8.76267 30.5368 8.39753 30.3405 8.04297L29.8418 8.3247C29.9222 8.47201 30.0007 8.62116 30.0756 8.77215L30.103 8.82555Z" fill="#F68922"/>
<path d="M10.5816 13.5933V13.5639V13.4865V13.4755V13.4018V13.3613H10.0098V13.5289C10.0098 13.8788 10.0262 14.2305 10.0591 14.5766L10.6272 14.5214C10.5962 14.1568 10.5962 13.8769 10.5816 13.5933Z" fill="#F68922"/>
<path d="M30.8096 16.1933L31.3576 16.3462C31.4637 15.9541 31.5478 15.5564 31.6097 15.1548L31.0562 15.0664C30.9939 15.4462 30.9116 15.8224 30.8096 16.1933Z" fill="#F68922"/>
<path d="M10.0948 12.0612L10.6611 12.133C10.7093 11.7514 10.7782 11.3727 10.8676 10.9987L10.3104 10.8643C10.2939 10.9343 10.2866 11.0079 10.272 11.0798C10.0065 10.9803 9.73494 10.8979 9.45906 10.833L9.33301 11.3854C9.61703 11.4528 9.89601 11.5401 10.1679 11.6469C10.146 11.7924 10.1112 11.9249 10.0948 12.0612Z" fill="#F68922"/>
<path d="M16.2295 22.7061H16.213H16.1984H16.1856H16.1674L15.9043 23.2198C16.2606 23.4045 16.6265 23.5699 17.0004 23.7151L17.2032 23.1774C16.869 23.0484 16.5415 22.9021 16.2222 22.7392L16.2295 22.7061Z" fill="#F68922"/>
<path d="M30.7623 10.5237C30.8318 10.7705 30.8939 11.0209 30.945 11.2732V11.2824V11.3008C30.956 11.3597 30.9669 11.4168 30.9761 11.4757L31.5406 11.3763C31.4692 10.9763 31.3765 10.5804 31.2629 10.1904L30.7148 10.3543L30.7623 10.5237Z" fill="#F68922"/>
<path d="M29.111 19.6773C28.9831 19.8467 28.8498 20.0124 28.7109 20.1726L29.1439 20.5409C29.4053 20.234 29.6493 19.9125 29.8746 19.5779L29.4033 19.252C29.2846 19.4379 29.1987 19.5631 29.111 19.6773Z" fill="#F68922"/>
<path d="M27.5548 21.3431L27.531 21.3634L27.5109 21.3799H27.5L27.4854 21.391H27.4744L27.4616 21.402L27.447 21.4131L27.4324 21.426L27.4159 21.4389L27.4013 21.4499C27.2893 21.5395 27.176 21.6279 27.0615 21.7151L27.4013 22.1772C27.7255 21.9367 28.0359 21.6779 28.3312 21.402L27.9421 20.9785C27.7685 21.1534 27.6626 21.2492 27.5548 21.3431Z" fill="#F68922"/>
<path d="M25.9196 22.4886L26.3069 22.0117L26.2759 21.9859C26.1388 21.8717 26.0037 21.7539 25.8794 21.636H25.8685V21.6158H25.8593H25.8356L25.8265 21.5845H25.8027V21.5642H25.7808L25.7662 21.5495C25.6547 21.4409 25.5488 21.3304 25.4501 21.2217L25.4227 21.1904L24.9697 21.5882L24.9404 21.6158L24.9678 21.6452C25.2451 21.951 25.5437 22.2365 25.8612 22.4996L25.8794 22.5144C25.7095 22.6083 25.5396 22.6985 25.3643 22.7906H25.3442H25.304H25.2894L25.0226 22.914L25.2528 23.4424C25.6214 23.2786 25.9806 23.0942 26.3288 22.89L26.042 22.391C26 22.4481 25.958 22.4665 25.9196 22.4886Z" fill="#F68922"/>
<path d="M14.9368 21.9197H14.8984H14.8874H14.8765C14.6938 21.7797 14.4965 21.6324 14.3156 21.4814H14.3047H14.2882L13.9229 21.9234C14.2313 22.1866 14.5539 22.4325 14.8893 22.6599L15.2053 22.1793L14.9605 22.0099L14.9368 21.9197Z" fill="#F68922"/>
<path d="M15.3835 12.1605V12.1697V12.1973V12.3814V12.3907C15.3835 12.4606 15.3835 12.5324 15.3835 12.6024H15.9554C15.9576 12.1606 15.8961 11.7208 15.7727 11.2969L15.2246 11.4589C15.2995 11.6872 15.3527 11.9221 15.3835 12.1605Z" fill="#F68922"/>
<path d="M14.0668 16.2486C14.0668 16.2707 14.0668 16.2928 14.0796 16.3149V16.337V16.3499V16.3591V16.3775C14.107 16.5359 14.1271 16.6924 14.1417 16.8507C14.1426 16.8562 14.1426 16.8618 14.1417 16.8673C14.1426 16.8765 14.1426 16.8857 14.1417 16.8949V16.9557L14.7117 16.9189C14.6949 16.6496 14.6625 16.3815 14.6149 16.116C14.5875 15.9669 14.5564 15.8214 14.5199 15.6778L14.1746 15.7643L13.9261 15.4531L13.8111 15.5415H13.7727C13.5359 15.7986 13.2662 16.0228 12.9707 16.2081L13.1844 16.7421C13.4961 16.6116 13.7921 16.446 14.0668 16.2486Z" fill="#F68922"/>
<path d="M14.3136 9.84618H14.3227H14.3319H14.4324H14.4451C14.5164 9.93641 14.5822 10.0303 14.6443 10.1261L15.1247 9.8112C14.8849 9.44119 14.5926 9.10865 14.257 8.82422L13.8916 9.26615C13.995 9.35355 14.0938 9.44636 14.1876 9.5442L14.3136 9.84618Z" fill="#F68922"/>
<path d="M11.5093 17.0733C11.6463 17.0733 11.7833 17.0733 11.9185 17.0531L11.8746 16.4804C11.7815 16.4804 11.692 16.4933 11.5951 16.4951H11.3266C11.2298 16.4951 11.1311 16.4693 11.0325 16.4565C10.9448 16.1692 10.8699 15.8764 10.8078 15.5781L10.2305 15.696C10.3136 16.0936 10.4178 16.4863 10.5429 16.8726L10.636 16.8413L10.6141 16.9849C10.9088 17.0446 11.2087 17.0742 11.5093 17.0733Z" fill="#F68922"/>
<path d="M15.2264 13.7458V13.755C15.21 13.8047 15.1935 13.8544 15.1752 13.906H15.1643L15.1533 13.9281C15.0468 14.2268 14.9045 14.5112 14.7295 14.7751L15.2045 15.0992C15.3831 14.8314 15.5338 14.5457 15.6539 14.2466C15.6977 14.1361 15.7379 14.0256 15.7726 13.9133L15.2246 13.7402L15.2264 13.7458Z" fill="#F68922"/>
<path d="M7.125 13.4327C7.20866 13.8663 7.35516 14.2851 7.55979 14.6757L8.07131 14.4068C7.89379 14.0655 7.76582 13.7003 7.69132 13.3223L7.125 13.4327Z" fill="#F68922"/>
<path d="M8.91673 15.4971H8.90577H8.88933H8.86558H8.84731H8.83818L8.43262 15.9022C8.74057 16.2171 9.09338 16.4839 9.4794 16.694L9.75161 16.1857C9.48837 16.0426 9.24305 15.8683 9.02086 15.6665L8.91673 15.4971Z" fill="#F68922"/>
<path d="M31.7124 6.13361C31.5626 6.12625 31.4128 6.12256 31.263 6.12256C30.9962 6.12256 30.7277 6.13361 30.4628 6.15571C29.2955 4.59063 27.7686 3.33475 26.0132 2.4961C24.2579 1.65744 22.3267 1.2611 20.3858 1.34117C18.4448 1.42123 16.5523 1.97531 14.8708 2.95574C13.1893 3.93616 11.7692 5.31361 10.7328 6.96959C9.91992 7.08882 9.14288 7.38622 8.45638 7.84085C7.76988 8.29547 7.19061 8.89626 6.75936 9.60092C4.8807 9.89812 3.16851 10.8602 1.92982 12.3145C0.691134 13.7689 0.00696656 15.6205 0 17.5372C0 21.8976 3.53679 25.4846 7.89201 25.5583H31.0565H31.4767C33.979 25.5095 36.3644 24.4812 38.1278 22.691C39.8912 20.9007 40.8942 18.4891 40.9246 15.9666C40.955 13.4441 40.0103 11.0086 38.2906 9.17574C36.5708 7.34289 34.211 6.25649 31.7105 6.1465L31.7124 6.13361ZM31.4603 23.8108H31.0583H24.0926L23.9482 23.3431L23.7655 23.3983H23.7126C23.4276 23.4794 23.1371 23.5493 22.843 23.6064L22.8777 23.7905H21.7122V23.7574C21.5514 23.7703 21.387 23.7795 21.2226 23.785H20.5685H19.4158L19.4304 23.6837C19.277 23.6616 19.1253 23.6359 18.9755 23.6083H18.8805H18.8677H18.855C18.6723 23.5714 18.4896 23.5291 18.3069 23.4812L18.2229 23.809H10.2194L10.0769 23.4296C9.77958 23.5394 9.47417 23.6256 9.1635 23.6874H9.1434H9.12879H9.08312L9.00091 23.7022H8.98447L9.00274 23.809H7.9596C4.54704 23.7832 1.71542 20.9751 1.71542 17.5372C1.71468 15.9913 2.27793 14.4991 3.29796 13.3447C4.31799 12.1902 5.72357 11.4542 7.24713 11.2766C7.16007 11.5488 7.0989 11.8287 7.06444 12.1126L7.63442 12.1715C7.63442 12.1475 7.63442 12.1236 7.63442 12.0997V12.0868V12.0776V12.0665V12.0536V12.0444V12.0334C7.66 11.899 7.69288 11.7645 7.73125 11.632V11.6117V11.6025H7.74769C7.94359 10.8293 8.36903 10.1348 8.96711 9.61196C9.56519 9.08909 10.3074 8.76273 11.0945 8.67655C10.9327 9.00965 10.7876 9.35073 10.6597 9.69851L11.1968 9.89554C11.3125 9.57759 11.4422 9.2707 11.5859 8.97485V8.96012L11.6206 8.88831L11.2717 8.71522C11.3448 8.71522 11.416 8.6968 11.4927 8.6968C11.5695 8.6968 11.6498 8.6968 11.7266 8.6968C11.8015 8.55318 11.8837 8.41323 11.9659 8.27329L11.9166 8.7189C12.1538 8.74502 12.3881 8.79372 12.6163 8.86437H12.7222L12.8483 8.91224H12.8684H12.8793H12.9707L13.0456 8.94355L13.2703 8.41323L13.1789 8.37641C12.8182 8.23853 12.4411 8.14877 12.0572 8.10941C12.1742 7.91054 12.2984 7.71719 12.4226 7.52937C12.4738 7.45756 12.5249 7.38575 12.5779 7.31577C13.5032 6.03493 14.7082 4.9856 16.0998 4.24885C17.4914 3.5121 19.0325 3.10763 20.6039 3.0667C22.1753 3.02577 23.735 3.34946 25.1625 4.01278C26.59 4.6761 27.8472 5.66129 28.8369 6.89226L28.9392 7.02115C29.1917 7.33985 29.4248 7.67376 29.6371 8.02102C30.1687 7.90853 30.7105 7.85176 31.2538 7.85161C31.378 7.85161 31.5004 7.85161 31.6192 7.86082C33.6736 7.95014 35.6129 8.84138 37.0271 10.346C38.4413 11.8507 39.2194 13.8508 39.1968 15.9233C39.1743 17.9958 38.3529 19.9782 36.9063 21.4512C35.4597 22.9243 33.5015 23.7724 31.4456 23.8163L31.4603 23.8108Z" fill="#F68922"/>
</svg>
